<?xml version="1.0" ?><!DOCTYPE svg  PUBLIC '-//W3C//DTD SVG 1.1//EN'  'http://www.w3.org/Graphics/SVG/1.1/DTD/svg11.dtd'><svg enable-background="new 0 0 512 512" height="512px" version="1.1" viewBox="0 0 512 512" width="512px" xml:space="preserve" xmlns="http://www.w3.org/2000/svg" xmlns:xlink="http://www.w3.org/1999/xlink"><g id="Colors"><g><g><path d="M269.513,150.627c0,0-48.504-42.764-21.897-73.671c26.605-30.906,70.893-18.438,70.893-18.438     s12.959-46.464,61.859-42.41c48.902,4.054,79.646,61.612,50.413,97.149c0,0,58.504,22.396,43.98,78.347     c-14.525,55.951-82.687,42.824-82.687,42.824s-21.588-2.893-38.129-21.09c0,0,0.618,11.346-15.035,12.109" fill="#6FBCB2"/></g></g><g><g><circle cx="311.22" cy="83.872" fill="#99E0D4" r="12.226"/></g></g><g><g><path d="M415.63,29.939c0,0,37.259,57.932-18.866,88.812c0,0,72.99,28.166,50.955,68.172     c-20.044,36.387-58.971,38.259-107.658,7.511l23.202,26.21c0,0,55.733,35.132,93.83,1.706     c38.095-33.428,19.497-91.025-23.834-108.025C433.259,114.325,463.709,73.154,415.63,29.939z" fill="#4C9B8E"/></g></g><g><g><path d="M339.406,83.875c-1.201,0-2.422-0.218-3.609-0.678c-5.15-1.995-7.708-7.786-5.714-12.937     c8.158-21.067,20.081-33.925,35.438-38.214c22.39-6.254,42.538,9,43.385,9.651c4.375,3.371,5.188,9.65,1.817,14.025     c-3.361,4.364-9.615,5.184-13.987,1.846c-0.285-0.212-13.343-9.821-25.937-6.23c-8.906,2.539-16.33,11.335-22.065,26.146     C347.199,81.446,343.415,83.875,339.406,83.875z" fill="#99E0D4"/></g></g><g><g><path d="M295.764,150.677c-76.149-35.26-158.909-28.686-218.126,39.988     c-28.239,32.751-44.882,74.458-41.507,115.086c2.143,25.788,9.782,50.569,23.444,70.635c15.188,22.311,52.6,54.255,32.615,89.218     c-3.198,5.596-18.065,22.589-7.708,27.685c6.411,3.153,15.024-3.386,20.969-7.039c48.364-29.699,88.082-3.423,132.341,6.114     c17.415,3.753,44.087-1.602,62.12-7.012c20.609-6.18,39.816-17.925,56.111-33.796c51.44-50.104,66.906-114.536,48.592-173.86     c-9.351-30.29-29.979-65.623-52.511-86.003C335.573,176.743,316.154,160.118,295.764,150.677z" fill="#FFF5E1"/></g></g><g><g><path d="M329.62,172.42c0,0,81.917,117.672,2.113,219.433c0,0-44.65,66.525-139.323,57.739     c0,0-65.791-19.034-107.928,43.697c0,0,6.672,0.877,19.076-7.255c12.406-8.132,39.785-21.185,74.133-9.677     c34.347,11.506,84.971,29.214,147.531-1.331c0,0,58.974-34.945,79.412-96.848C425.073,316.276,408.307,228.851,329.62,172.42z" fill="#F4DEB8"/></g></g><g><g><path d="M216.246,129.977c0,0,73.954,101.249,185.947,140.478c0,0-18.142-59.108-65.602-93.153     C272.59,129.237,216.246,129.977,216.246,129.977z" fill="#FF8AB1"/></g></g><g><g><ellipse cx="167.567" cy="258.154" fill="#FFFAF0" rx="89.233" ry="87.087"/></g></g><g><g><path d="M362.746,253.507c0,0-9.746-54.667-33.746-81.087c0,0,52.387,33.488,73.193,98.034     C402.193,270.454,378.308,261.921,362.746,253.507z" fill="#E26091"/></g></g><g><g><g><path d="M93.991,233.502c-1.604,0-3.23-0.387-4.741-1.202c-4.86-2.623-6.673-8.689-4.05-13.55      c28.191-52.226,87.999-58.904,90.531-59.163c5.506-0.563,10.403,3.438,10.965,8.932c0.561,5.487-3.427,10.391-8.91,10.962      c-0.597,0.065-51.929,6.054-74.986,48.769C100.992,231.6,97.548,233.502,93.991,233.502z" fill="#FFFFFF"/></g></g></g><g><g><circle cx="78.351" cy="254.549" fill="#FFFFFF" r="13.66"/></g></g></g><g id="Lines"><g><g><path d="M408.931,240.773c-9.623,0-16.561-1.206-17.67-1.411c-0.632-0.093-2.938-0.467-6.355-1.432     c-2.657-0.75-4.203-3.513-3.452-6.171c0.75-2.657,3.511-4.202,6.171-3.452c3.128,0.883,5.106,1.164,5.126,1.167     c0.086,0.012,0.185,0.028,0.27,0.044c0.159,0.03,16.546,3.069,34.255-0.48c22.821-4.574,37.169-17.592,42.646-38.69     c5.514-21.242,0.472-39.784-14.986-55.112c-11.905-11.806-25.81-17.257-25.948-17.311c-1.498-0.578-2.631-1.842-3.038-3.395     c-0.408-1.553-0.05-3.208,0.971-4.448c11.317-13.758,13.411-32.054,5.744-50.196c-9.159-21.671-29.849-36.899-52.709-38.794     c-44.098-3.65-56.141,37.046-56.633,38.781c-0.365,1.288-1.233,2.38-2.407,3.024c-1.174,0.645-2.56,0.796-3.839,0.412     c-0.46-0.136-46.597-13.422-65.223,16.303c-11.112,17.733-10.142,34.772,2.886,50.644c1.752,2.135,1.441,5.285-0.693,7.037     s-5.283,1.441-7.037-0.692c-15.828-19.285-17.083-40.828-3.63-62.298c19.011-30.336,58.396-24.733,71.939-21.739     c1.901-4.741,5.621-12.462,11.957-19.989c9.292-11.037,26.109-23.724,53.506-21.447c26.523,2.199,50.504,19.81,61.094,44.867     c8.117,19.208,6.751,39.412-3.46,55.272c5.756,2.925,14.872,8.328,23.308,16.62c12.629,12.414,25.981,33.763,17.879,64.977     c-6.456,24.867-23.976,40.789-50.664,46.043C421.743,240.32,414.831,240.773,408.931,240.773z" fill="#3F456B"/></g></g><g><g><path d="M350.095,193.309c-1.115,0-2.237-0.371-3.168-1.134c-2.135-1.751-2.446-4.901-0.695-7.037     c0.35-0.427,8.728-10.512,22.911-16.424c13.229-5.514,34.096-8.344,58.382,9.481c2.227,1.634,2.707,4.763,1.073,6.989     c-1.635,2.226-4.765,2.707-6.989,1.072c-16.479-12.094-32.838-14.891-48.618-8.312c-11.906,4.962-18.956,13.449-19.026,13.534     C352.976,192.685,351.541,193.309,350.095,193.309z" fill="#3F456B"/></g></g><g><g><path d="M333.556,180.587c-1.412,0-2.815-0.595-3.804-1.753c-1.794-2.1-1.545-5.256,0.555-7.049     c52.345-44.708,46.15-97.755,46.081-98.285c-0.354-2.739,1.578-5.246,4.317-5.601c2.738-0.355,5.245,1.579,5.601,4.316     c0.078,0.608,1.867,15.125-3.383,35.628c-4.807,18.773-16.711,46.425-46.122,71.545     C335.859,180.193,334.705,180.587,333.556,180.587z" fill="#3F456B"/></g></g><g><g><path d="M321.584,171.269c-1.108,0-2.223-0.366-3.149-1.119c-2.144-1.741-2.47-4.89-0.729-7.034     c6.836-8.414,9.572-16.956,8.134-25.388c-2.988-17.522-22.459-29.659-22.655-29.779c-2.354-1.445-3.09-4.523-1.645-6.877     c1.444-2.354,4.522-3.091,6.877-1.645c0.959,0.589,23.538,14.678,27.281,36.619c1.943,11.397-1.498,22.626-10.23,33.375     C324.479,170.638,323.038,171.269,321.584,171.269z" fill="#3F456B"/></g></g><g><g><path d="M88.232,499.123c-2.135,0-4.139-0.454-5.956-1.348c-3.133-1.541-5.218-4.015-6.031-7.156     c-2.004-7.732,4.45-17.038,9.163-23.832c1.013-1.46,1.969-2.839,2.441-3.665c14.402-25.198-4.6-48.751-21.365-69.532     c-4.101-5.083-7.974-9.883-11.042-14.391c-13.581-19.946-21.981-45.201-24.294-73.035c-3.335-40.135,12.23-83.424,42.702-118.765     c35.364-41.012,81.23-62.689,132.64-62.689c29.923,0,60.666,7.21,91.374,21.429c20.392,9.441,39.732,25.691,57.594,41.845     c22.153,20.037,43.828,55.497,53.935,88.237c9.427,30.535,10.089,62.749,1.913,93.16c-8.531,31.739-25.958,60.591-51.794,85.756     c-9.626,9.376-20.344,17.23-30.995,23.139C307.35,490.018,282.372,496,256.286,496c-0.002,0-0.002,0-0.004,0     c-17.684,0-35.283-2.544-52.308-8.002c-14.475-4.641-33.449-9.856-51.845-9.856c-16.227,0-30.639,4.065-44.062,12.312     c-0.718,0.441-1.476,0.954-2.264,1.458C100.798,495.112,94.567,499.123,88.232,499.123z M206.49,134.711     c-48.412,0-91.659,20.478-125.065,59.219C52.693,227.252,38,267.858,41.113,305.337c2.17,26.117,9.983,49.712,22.595,68.235     c2.841,4.173,6.59,8.82,10.56,13.74c16.904,20.952,40.055,49.647,22.264,80.772c-0.688,1.205-1.716,2.687-2.906,4.402     c-2.339,3.373-8.554,12.332-7.7,15.625c0.035,0.135,0.094,0.361,0.765,0.691c0.438,0.216,0.943,0.321,1.543,0.321     c3.412,0,8.483-3.242,12.187-5.609c0.841-0.538,1.649-1.054,2.415-1.524c15.042-9.243,31.167-13.736,49.296-13.736     c19.782,0,39.729,5.583,54.897,10.446c16.037,5.142,32.608,7.749,49.255,7.75c24.395,0,47.695-5.772,67.383-16.693     c9.887-5.484,19.87-13.017,28.87-21.782c24.53-23.893,41.055-51.209,49.113-81.188c7.686-28.587,7.059-58.884-1.811-87.614     c-9.622-31.17-30.153-64.835-51.087-83.77c-17.277-15.624-35.908-31.307-55.088-40.187     C264.28,141.609,234.951,134.711,206.49,134.711z" fill="#3F456B"/></g></g></g></svg>