<svg xmlns="http://www.w3.org/2000/svg" xmlns:xlink="http://www.w3.org/1999/xlink" version="1.1" x="0px" y="0px" viewBox="0 0 96 120" enable-background="new 0 0 96 96" xml:space="preserve"><g><path d="M51.366,42.152c-4.944-2.104-4.944-2.843-4.944-3.285c0-1.209,1.385-1.463,2.547-1.463c2.771,0,4.514,0.999,5.449,1.534   l3.561,2.048l3.945-10.413l-2.606-1.487c-1.771-1.004-3.626-1.688-5.648-2.079v-5.911H43.07v6.515   c-5.302,1.93-8.563,6.423-8.563,11.885c0,7.647,6.207,11.062,11.604,13.178c4.265,1.727,4.265,2.911,4.265,3.547   c0,1.442-1.653,2.088-3.291,2.088c-3.049,0-5.378-1.313-6.236-1.876l-3.721-2.449L33.36,64.501l2.157,1.53   c1.838,1.315,4.43,2.326,7.21,2.824v6.049h10.598v-6.726c5.505-1.964,9.021-6.764,9.021-12.415   C62.346,49.531,58.853,45.204,51.366,42.152z M51.422,65.635l-1.097,0.307v5.963h-4.598v-5.676l-1.324-0.155   c-2.754-0.325-5.424-1.253-7.145-2.484l-0.307-0.218l1.714-4.784l0.535,0.352c1.083,0.714,4.02,2.372,7.885,2.372   c3.704,0,6.291-2.093,6.291-5.09c0-3.376-2.953-5.037-6.155-6.333c-5.045-1.978-9.714-4.606-9.714-10.391   c0-4.459,2.863-8.042,7.472-9.351l1.091-0.309v-5.74h4.598v5.509l1.31,0.169c2.146,0.273,4.063,0.902,5.856,1.919l0.376,0.214   l-1.789,4.721l-0.519-0.298c-1.18-0.673-3.376-1.926-6.933-1.926c-5.391,0-5.547,4.006-5.547,4.463c0,2.455,1.52,3.811,6.791,6.053   c6.401,2.61,9.133,5.853,9.133,10.844C59.346,60.434,56.236,64.308,51.422,65.635z"/><path d="M48,6.5C25.117,6.5,6.5,25.117,6.5,48c0,22.883,18.617,41.5,41.5,41.5c22.883,0,41.5-18.617,41.5-41.5   C89.5,25.117,70.883,6.5,48,6.5z M48,86.5C26.771,86.5,9.5,69.229,9.5,48C9.5,26.771,26.771,9.5,48,9.5   c21.229,0,38.5,17.271,38.5,38.5C86.5,69.229,69.229,86.5,48,86.5z"/></g></svg>
