<svg xmlns="http://www.w3.org/2000/svg" xmlns:xlink="http://www.w3.org/1999/xlink" version="1.1" x="0px" y="0px" viewBox="0 0 54 74.5125" enable-background="new 0 0 54 59.61" xml:space="preserve">
    <g>
        <path d="M12.17,46.41c-2.83-0.63-5.21-2.77-6.08-5.45c-0.17-0.52-0.73-0.81-1.26-0.64c-0.53,0.17-0.81,0.73-0.64,1.26   c1.1,3.39,3.99,5.99,7.55,6.78c0.07,0.02,0.15,0.02,0.22,0.02c0.46,0,0.87-0.32,0.98-0.78C13.05,47.07,12.71,46.53,12.17,46.41z"/>
        <path d="M38.03,53.75c-2.83-0.63-5.21-2.77-6.08-5.45c-0.17-0.52-0.73-0.81-1.26-0.64c-0.53,0.17-0.81,0.73-0.64,1.26   c1.1,3.39,3.99,5.99,7.55,6.78c0.07,0.02,0.15,0.02,0.22,0.02c0.46,0,0.87-0.32,0.98-0.78C38.91,54.41,38.57,53.88,38.03,53.75z"/>
        <path d="M4.73,37.19c0.07,0.01,0.13,0.02,0.2,0.02c0.47,0,0.88-0.33,0.98-0.8c0.23-1.12,0.64-2.18,1.22-3.14   c0.29-0.47,0.14-1.09-0.33-1.37c-0.47-0.29-1.09-0.14-1.37,0.33c-0.71,1.16-1.2,2.43-1.48,3.79C3.84,36.56,4.19,37.08,4.73,37.19z"/>
        <path d="M46.93,32.28c2.19-7.31-0.21-13.97-5.22-21.93c0.69,0.16,1.4,0.26,2.14,0.26c0,0,0,0,0,0c3.52,0,6.99-1.75,9.05-4.56   l0.59-0.81l-0.81-0.59c-1.53-1.12-3.41-1.71-5.43-1.71c-2.9,0-5.75,1.2-7.82,3.19C37.81,2.56,33.83,0,29.45,0   c-0.54,0-1.08,0.04-1.6,0.12l-0.99,0.15l0.15,0.99c0.72,4.68,5.4,8.35,10.65,8.35c0,0,0,0,0,0c0.23,0,0.46-0.01,0.69-0.03   c-0.46,8.79-7.04,16.64-13.6,19.15c-2.38-3.14-5.87-5.13-9.76-5.13h-2c-7.17,0-13,6.73-13,15c0,7.72,6.28,14,14,14   c5.1,0,9.56-2.75,12.01-6.84C26.1,53.42,32.33,59.61,40,59.61c7.72,0,14-6.28,14-14C54,39.81,51.12,34.77,46.93,32.28z M47.25,4.94   c1.21,0,2.34,0.26,3.33,0.77c-1.71,1.79-4.25,2.91-6.74,2.91h0c-1.21,0-2.34-0.26-3.34-0.77C42.22,6.05,44.76,4.94,47.25,4.94z    M29.23,2c3.5-0.09,7.49,2,8.65,5.61c-0.07,0-0.14,0-0.22,0c0,0,0,0,0,0C34.23,7.61,30.37,5.54,29.23,2z M40.17,11.67   c5.12,8.23,6.62,13.95,4.96,19.74c-1.3-0.5-2.68-0.79-4.13-0.79h-2c-4.66,0-8.74,2.85-11.04,7.12c-0.14-2.68-0.88-5.17-2.08-7.29   C32.54,27.71,38.92,20.35,40.17,11.67z M14,50.61c-6.62,0-12-5.38-12-12c0-7.17,4.93-13,11-13h2c3,0,5.72,1.43,7.71,3.74   c-0.72,0.15-1.44,0.23-2.14,0.23c-0.55,0-1,0.45-1,1s0.45,1,1,1c1.11,0,2.25-0.18,3.39-0.49c1.28,2.12,2.04,4.71,2.04,7.51   C26,45.23,20.62,50.61,14,50.61z M40,57.61c-6.62,0-12-5.38-12-12c0-7.17,4.93-13,11-13h2c1.22,0,2.39,0.25,3.49,0.68   c-0.38,0.93-0.83,1.87-1.36,2.83c-0.27,0.48-0.09,1.09,0.39,1.36c0.15,0.09,0.32,0.13,0.48,0.13c0.35,0,0.69-0.19,0.88-0.51   c0.55-0.99,0.99-1.95,1.38-2.91C49.67,36.4,52,40.69,52,45.61C52,52.23,46.62,57.61,40,57.61z"/>
        <path d="M22,32.61c-2.21,0-4-1.79-4-4c0-0.55-0.45-1-1-1s-1,0.45-1,1c0,3.31,2.69,6,6,6c0.55,0,1-0.45,1-1S22.55,32.61,22,32.61z"/>
        <path d="M46,39.61c-2.21,0-4-1.79-4-4c0-0.55-0.45-1-1-1s-1,0.45-1,1c0,3.31,2.69,6,6,6c0.55,0,1-0.45,1-1S46.55,39.61,46,39.61z"/>
    </g>
</svg>
