<svg xmlns="http://www.w3.org/2000/svg" xmlns:xlink="http://www.w3.org/1999/xlink" version="1.1" x="0px" y="0px" viewBox="0 0 100 125" style="enable-background:new 0 0 100 100;" xml:space="preserve"><path d="M61.7,29.8c0.6-0.3,1.2-0.6,1.8-0.9c5.6-3.4,7.1-9.3,7.1-9.6l0.4-1.7l-1.7-0.4c-9.2-2-14.9,0.9-18,3.8  c-0.9,0.8-1.6,1.6-2.2,2.4c-0.2-2.1-0.6-4.4-1.3-6.8l-3.3,1c0.8,2.5,1.1,4.8,1.2,6.8c-0.7-1.1-1.6-2.3-2.8-3.4  c-3.1-2.9-8.7-5.9-18-3.8l-1.7,0.4l0.4,1.7c0.1,0.3,1.5,6.2,7.1,9.6c1.1,0.6,2.2,1.1,3.4,1.5c-11.3,5-19.1,15.6-19.1,27.8  c0,17,15.1,30.9,33.6,30.9s33.6-13.8,33.6-30.9C82.2,45.5,73.8,34.5,61.7,29.8z M66.6,20.3c-0.7,1.6-2.2,4-4.9,5.6  c-2.9,1.7-6.5,2.2-10.9,1.3C52.4,24.4,56.7,18.9,66.6,20.3z M27.6,20.3c9.9-1.4,14.2,4.1,15.8,7c-4.3,0.8-8,0.4-10.8-1.3  C29.9,24.4,28.4,22,27.6,20.3z M48.6,85.7c-16.6,0-30.1-12.3-30.1-27.4c0-14,11.6-25.6,26.6-27.2c-0.4,1.7-0.9,2.7-1,2.7l3,1.6  c0.1-0.1,0.9-1.8,1.5-4.6c16.6,0,30,12.3,30,27.4C78.8,73.4,65.3,85.7,48.6,85.7z"/><path d="M73.6,48c-2.4-5.1-6-8.1-6.2-8.2l-1.2,1.5c0,0,3.4,2.8,5.7,7.5c3,6.3,2.6,12.7-1.1,19.1l1.7,1C77.6,60.1,75.9,52.7,73.6,48z  "/><rect x="65.1" y="72.2" transform="matrix(0.7282 -0.6853 0.6853 0.7282 -31.8366 66.0295)" width="4.5" height="1.9"/></svg>
