<svg xmlns="http://www.w3.org/2000/svg" xmlns:xlink="http://www.w3.org/1999/xlink" version="1.1" x="0px" y="0px" viewBox="0 0 100 125" enable-background="new 0 0 100 100" xml:space="preserve"><path fill="#000000" d="M61.0683556,28.5389824c1.8384056-3.4946594,3.9336891-5.7715378,3.9788475-5.8200378  c0.8616104-0.9182549,0.8170166-2.3616409-0.1003494-3.2250404c-0.918251-0.8645153-2.3636436-0.8208103-3.2277145,0.0978909  c-0.1073685,0.1141129-1.0149193,1.0939941-2.1796837,2.7251911c-0.0387993-4.3454056-1.5722733-8.5044222-4.4102097-11.8676033  c-3.2234802-3.8204131-7.7420616-6.1568565-12.7228928-6.5787454L27.5572929,2.6123295  c-1.2545185-0.1048033-2.3616409,0.8257158-2.4680061,2.0822401l-0.4517689,5.3309174  c-0.4221115,4.9808302,1.1209488,9.8278704,4.344429,13.6482821c2.314146,2.7425575,5.2976933,4.7151432,8.638464,5.7689171  c-13.0123272,5.1803188-22.2381344,17.8945713-22.2381344,32.7313385c0,19.4213829,15.8003159,35.2216988,35.2216949,35.2216988  s35.2216949-15.8003159,35.2216949-35.2216988C85.8256683,46.3949203,75.3959656,33.00597,61.0683556,28.5389824z   M81.2589264,62.1740227c0,3.4246712-0.5729599,6.7160759-1.6137466,9.7938347  c0.1686859-1.2699585,0.2644577-2.5626602,0.2644577-3.8780212c0-13.0404243-8.4872818-24.5551796-20.6395493-28.0018692  c-0.4097366-0.1162872-0.8405457-0.2164917-1.2882996-0.310009c0.2170753-0.3493881,0.3481903-0.7580376,0.3481903-1.199604  c0-2.0368347,0.3778496-3.9950943,0.9511452-5.800972C71.970459,36.5298386,81.2589264,48.2844162,81.2589264,62.1740227z   M32.4723434,20.7287979c-2.4370117-2.8881092-3.6034489-6.552433-3.2845802-10.3177681l0.2591095-3.0555725l12.5739365,1.0654249  c3.7653351,0.3190928,7.1812553,2.0853624,9.6182632,4.9734716c2.4370117,2.8881111,3.6032257,6.552433,3.2843552,10.3179913  l-0.2588844,3.0551262l-12.5741615-1.0652008C38.3250465,25.3831768,34.9093513,23.616909,32.4723434,20.7287979z   M19.9490223,62.1740227c0-16.9032021,13.751749-30.6551723,30.6549511-30.6551723  c1.4222031,0,2.8196526,0.1054173,4.1910172,0.2938118c-0.6254768,2.0942249-1.0317574,4.3709927-1.0317574,6.7656918  c0,0.1130257,0.017395,0.2213402,0.033226,0.3299637c-1.002655-0.2749138-1.887352-0.6255035-2.3739052-1.1121979  c-0.8919411-0.8914986-2.3373375-0.8914986-3.2292786,0c-0.8917198,0.8917198-0.8917198,2.3375587,0,3.2292786  c1.9225807,1.9223595,4.9070206,2.47826,7.5402603,2.968605c0.8576012,0.1598816,1.6674843,0.3106194,2.2905083,0.4872246  c10.1971321,2.8923492,17.3188515,12.6004753,17.3188515,23.6086082c0,13.214798-10.4148788,24.0429535-23.4676819,24.7068939  c-0.4221115,0.017334-0.8448906,0.0322495-1.2712402,0.0322495C33.7007713,92.8289795,19.9490223,79.0772247,19.9490223,62.1740227z  "/></svg>
