<svg xmlns="http://www.w3.org/2000/svg" xmlns:xlink="http://www.w3.org/1999/xlink" viewBox="0 0 100 125" version="1.1" xml:space="preserve" style="" x="0px" y="0px" fill-rule="evenodd" clip-rule="evenodd" stroke-linejoin="round" stroke-miterlimit="1.41421"><g transform="matrix(1,0,0,1,4.19792,-0.204557)"><path d="M39.014,90.509C38.951,91.019 38.97,91.539 39.08,92.045C39.118,92.219 39.165,92.39 39.223,92.557C39.266,92.685 39.32,92.808 39.363,92.936C39.378,92.986 39.392,93.036 39.403,93.087C39.439,93.277 39.445,93.469 39.411,93.66C39.326,94.128 39.015,94.537 38.586,94.744C38.427,94.82 38.259,94.864 38.084,94.885C38.032,94.889 37.98,94.892 37.928,94.892C37.787,94.889 37.649,94.872 37.514,94.832C37.397,94.798 37.284,94.749 37.178,94.688C36.937,94.547 36.737,94.338 36.607,94.09C36.537,93.957 36.486,93.813 36.434,93.672C36.366,93.484 36.305,93.293 36.251,93.1C35.915,91.885 35.89,90.59 36.171,89.363C34.437,88.518 32.814,87.446 31.358,86.176C30.161,85.132 29.078,83.959 28.133,82.683C26.979,81.126 26.03,79.418 25.32,77.615C24.485,75.494 23.982,73.245 23.838,70.971C23.672,68.34 23.987,65.681 24.753,63.159C25.296,61.372 26.068,59.655 27.046,58.064C28.12,56.315 29.442,54.719 30.959,53.336C31.677,52.681 32.438,52.074 33.235,51.519C33.463,51.361 33.693,51.206 33.927,51.057C34.159,50.908 34.395,50.764 34.627,50.614C34.801,50.5 34.801,50.5 34.974,50.384C35.771,49.836 36.531,49.24 37.243,48.584C38.76,47.189 40.054,45.555 41.066,43.76C41.439,43.098 41.774,42.415 42.068,41.715C42.266,41.243 42.437,40.762 42.618,40.283C42.708,40.054 42.708,40.054 42.8,39.825C43.008,39.325 43.228,38.831 43.472,38.347C44.299,36.708 45.373,35.168 46.778,33.972C47.046,33.744 47.325,33.529 47.615,33.33C48.759,32.543 50.065,32.014 51.436,31.787C52.557,31.602 53.704,31.616 54.827,31.779C55.037,31.229 55.18,30.654 55.278,30.074C55.285,30.035 55.291,29.996 55.297,29.957C55.132,29.841 54.968,29.725 54.804,29.608C54.256,29.213 53.717,28.808 53.191,28.385C52.754,28.033 52.325,27.67 51.906,27.296C51.609,27.029 51.317,26.757 51.031,26.479C48.971,24.473 47.196,22.104 46.206,19.383C46.038,18.923 45.894,18.453 45.775,17.978C45.603,17.294 45.485,16.596 45.423,15.893C45.343,14.995 45.357,14.088 45.462,13.192C45.601,12.013 45.898,10.853 46.33,9.747C46.635,8.967 47.007,8.213 47.44,7.497C47.737,7.004 48.063,6.526 48.43,6.083L48.464,6.044C48.565,5.933 48.671,5.834 48.798,5.753C49.08,5.572 49.42,5.491 49.753,5.524C49.96,5.544 50.155,5.617 50.35,5.686C50.592,5.772 50.832,5.862 51.071,5.955C52.788,6.626 54.452,7.447 56.017,8.42C56.436,8.681 56.847,8.952 57.249,9.237C57.595,9.482 57.934,9.738 58.267,10.002C58.574,10.245 58.873,10.5 59.164,10.763C60.776,12.22 62.151,13.995 62.86,16.069C63.015,16.522 63.138,16.987 63.225,17.458C63.343,18.095 63.395,18.744 63.383,19.392C63.364,20.361 63.2,21.324 62.922,22.252C62.49,23.693 61.79,25.044 60.953,26.29C60.193,27.424 59.317,28.477 58.38,29.468C58.299,30.349 58.144,31.224 57.893,32.072C57.841,32.247 57.785,32.421 57.725,32.593C58.302,32.854 58.853,33.173 59.362,33.55C59.947,33.982 60.475,34.487 60.936,35.049C61.13,35.284 61.312,35.529 61.482,35.782C62.668,37.545 63.26,39.644 63.524,41.734C63.569,42.086 63.604,42.439 63.632,42.792C63.67,43.296 63.693,43.801 63.701,44.305C63.711,44.904 63.701,45.503 63.675,46.101C63.658,46.491 63.634,46.881 63.603,47.27C63.578,47.594 63.547,47.917 63.521,48.24C63.507,48.44 63.494,48.639 63.483,48.839C63.443,49.703 63.443,50.567 63.493,51.431C63.605,53.35 63.948,55.255 64.514,57.092C64.748,57.855 65.021,58.606 65.331,59.342C65.516,59.781 65.721,60.211 65.916,60.646C66.002,60.841 66.001,60.84 66.085,61.035C66.384,61.756 66.651,62.488 66.876,63.235C67.352,64.815 67.65,66.448 67.76,68.095C67.986,71.455 67.426,74.863 66.143,77.977C65.388,79.808 64.383,81.534 63.165,83.096C62.05,84.524 60.759,85.813 59.33,86.926C57.731,88.171 55.962,89.195 54.087,89.96C52.438,90.632 50.709,91.103 48.947,91.358C48.096,91.481 47.239,91.551 46.38,91.576C46.197,91.58 46.014,91.583 45.832,91.583C45.187,91.582 44.543,91.556 43.9,91.499C42.452,91.372 41.016,91.102 39.62,90.695C39.417,90.636 39.215,90.574 39.014,90.509ZM45.83,88.583C46.574,88.58 47.317,88.538 48.056,88.45C49.508,88.276 50.94,87.932 52.313,87.429C53.958,86.827 55.519,85.997 56.938,84.97C58.205,84.054 59.359,82.983 60.365,81.786C61.486,80.453 62.422,78.965 63.136,77.376C64.331,74.714 64.904,71.775 64.796,68.859C64.728,67.002 64.382,65.157 63.778,63.4C63.619,62.937 63.442,62.48 63.248,62.031C63.116,61.726 62.974,61.427 62.836,61.125C62.744,60.919 62.744,60.92 62.654,60.713C62.244,59.748 61.882,58.765 61.581,57.761C60.962,55.688 60.594,53.542 60.486,51.381C60.442,50.484 60.442,49.585 60.487,48.689C60.515,48.137 60.567,47.587 60.613,47.036C60.632,46.77 60.632,46.771 60.65,46.505C60.762,44.54 60.728,42.54 60.285,40.613C60.015,39.435 59.583,38.271 58.873,37.284C58.552,36.837 58.174,36.432 57.743,36.089C57.321,35.752 56.851,35.478 56.353,35.268C55.618,34.958 54.827,34.787 54.035,34.702C53.334,34.627 52.622,34.632 51.925,34.747C51.448,34.826 50.98,34.957 50.532,35.141C50.275,35.246 50.025,35.369 49.784,35.507C48.392,36.304 47.344,37.583 46.551,38.956C46.428,39.169 46.311,39.385 46.199,39.604C46.037,39.92 45.885,40.242 45.743,40.568C45.629,40.83 45.52,41.095 45.418,41.362C45.309,41.643 45.208,41.927 45.102,42.21C45.015,42.433 45.015,42.433 44.925,42.656C44.773,43.024 44.615,43.39 44.445,43.751C44.14,44.398 43.805,45.03 43.441,45.645C42.232,47.688 40.702,49.539 38.922,51.11C38.266,51.689 37.576,52.23 36.858,52.73C36.595,52.912 36.328,53.089 36.058,53.26C35.854,53.39 35.648,53.516 35.446,53.647C35.278,53.756 35.113,53.868 34.948,53.981C34.359,54.394 33.79,54.837 33.249,55.312C32.102,56.32 31.076,57.466 30.202,58.719C29.287,60.03 28.54,61.458 27.985,62.958C26.941,65.778 26.571,68.843 26.928,71.83C27.175,73.889 27.763,75.904 28.66,77.774C29.582,79.696 30.826,81.461 32.327,82.975C33.959,84.619 35.889,85.96 38.002,86.91C39.653,87.651 41.41,88.153 43.202,88.402C43.877,88.496 44.556,88.551 45.236,88.574C45.434,88.58 45.632,88.583 45.83,88.583ZM55.355,26.272C55.23,25.085 54.983,23.912 54.654,22.766C54.096,20.819 53.301,18.944 52.372,17.146C51.814,16.066 51.203,15.016 50.561,13.984L50.507,13.891C50.46,13.794 50.418,13.698 50.389,13.593C50.322,13.352 50.317,13.095 50.373,12.852C50.414,12.678 50.486,12.511 50.584,12.363C50.663,12.244 50.759,12.136 50.869,12.044C51.227,11.742 51.718,11.625 52.174,11.731C52.314,11.763 52.448,11.816 52.572,11.886C52.728,11.974 52.867,12.09 52.982,12.226C53.043,12.299 53.055,12.321 53.108,12.399C53.303,12.713 53.303,12.713 53.496,13.029C54.205,14.206 54.874,15.406 55.475,16.642C56.551,18.852 57.429,21.171 57.951,23.576C58.052,24.042 58.14,24.51 58.212,24.981C58.585,24.455 58.93,23.908 59.233,23.339C59.698,22.465 60.067,21.532 60.253,20.557C60.356,20.016 60.402,19.464 60.378,18.913C60.362,18.541 60.314,18.171 60.235,17.806C60.186,17.579 60.125,17.355 60.053,17.134C59.521,15.504 58.41,14.125 57.152,12.989C56.934,12.792 56.71,12.601 56.482,12.416C56.168,12.162 55.845,11.919 55.516,11.686C55.104,11.395 54.682,11.119 54.252,10.857C53.679,10.507 53.092,10.182 52.494,9.878C51.742,9.496 50.974,9.151 50.194,8.834L50.151,8.817C49.568,9.737 49.109,10.735 48.803,11.781C48.571,12.572 48.428,13.389 48.385,14.212C48.354,14.808 48.376,15.407 48.451,16C48.499,16.387 48.569,16.771 48.661,17.15C49.253,19.612 50.697,21.782 52.414,23.608C52.685,23.896 52.964,24.177 53.249,24.451C53.645,24.831 54.053,25.197 54.472,25.552C54.762,25.798 55.057,26.037 55.355,26.272Z" style="" fill="black"/></g></svg>
